<svg id="Capa_1" data-name="Capa 1" xmlns="http://www.w3.org/2000/svg" viewBox="0 0 378.61 241.08"><defs><style>.cls-1{fill:#333;}.cls-1,.cls-2{stroke:#fff;stroke-miterlimit:10;stroke-width:3px;}.cls-2{fill:#ff5640;}</style></defs><path class="cls-1" d="M42.66,147.39c7.24,0,14.48-.23,21.7.07a100.58,100.58,0,0,1,18,1.92c5.44,1.24,11.07,3.07,15.69,6.07,6.65,4.3,11.91,10.05,14.49,18.22,2.28,7.23,2,14.34,1.56,21.56-.17,2.38-1.41,4.75-2.42,7A36.91,36.91,0,0,1,98,218.56a51.37,51.37,0,0,1-21.19,8.08A141.69,141.69,0,0,1,55,228.25a96.16,96.16,0,0,1-20.18-2.78c-9-2.18-15.46-8-19-16.53-2.21-5.32-3.77-11-2.52-17,.56-2.7,2.26-4.77,4.3-4.78,2.51,0,3.92,1.58,4.19,4.8.21,2.48.42,5,.47,7.46C22.37,205,29,214,34.91,216.33c5.76,2.26,11.49,2.7,17.22,3,11.88.6,23.72-.14,34.85-5.11,6.25-2.79,10.66-7.46,14.28-13.19,2.48-3.92,4.64-8.07,4.59-12.51A38.67,38.67,0,0,0,103,175.32a26.43,26.43,0,0,0-12.41-13.44,36.61,36.61,0,0,0-9.79-3.47,90.64,90.64,0,0,0-15.23-2.28c-8.06-.32-16.15.23-24.22.05-5.11-.11-10.4-.18-15.26-1.53-6.19-1.73-12.21-4.9-14.2-11.67a37.71,37.71,0,0,1-1.34-13.54A68.92,68.92,0,0,1,14,114.7c1.21-3.85,3.63-7.06,6.31-10.2a51.05,51.05,0,0,1,10.83-9.79c2.28-1.49,4.72-2.75,7.13-4A21.74,21.74,0,0,1,42.33,89,61.75,61.75,0,0,1,49,87.56c9.18-1.48,18.39-1.91,27.3,1.24a75.17,75.17,0,0,1,14.12,6.38,22.91,22.91,0,0,1,9.46,10.52c.51,1.21,1.4,2.27,1.93,3.48,1.17,2.62.41,5.46-1.57,6.35-2.43,1.1-4.69.09-6.2-2.6a48.19,48.19,0,0,0-2.81-4.4A22.23,22.23,0,0,0,79,99.71C74.85,98.52,70.8,97.09,66.64,96a20.82,20.82,0,0,0-5.7-.31,52.61,52.61,0,0,0-22.44,5.51,32.23,32.23,0,0,0-13.34,12.34c-4.32,7.36-6.93,15.56-5.16,24.33a9.44,9.44,0,0,0,7.21,7.27c5,1.3,10.34,1.26,15.45,2.22Z"/><path class="cls-1" d="M202.17,15.53c1.61,1.35,3.27,2.65,4.8,4.08,1.14,1.06,2,2.38,3.16,3.46,2.74,2.63,5.54,5.2,8.33,7.78,2.38,2.2,4.86,4.3,7.17,6.58,5.54,5.48,10.94,11.12,16.55,16.53,3.8,3.67,8,7,11.79,10.61,6.48,6.15,12.84,12.43,19.24,18.67,5.57,5.42,11.22,10.76,16.61,16.35a7.89,7.89,0,0,1,2.27,5.29c-.21,2.93-5.09,4.21-7.26,2.13-6.47-6.19-12.85-12.47-19.34-18.63-6.86-6.51-13.87-12.86-20.72-19.38S231,55.55,224,48.87c-6.78-6.52-13.62-13-20.43-19.45-1.68-1.59-3.4-1.15-4.95.11-4.37,3.52-8.76,7-13,10.71-4.58,4-9,8.06-13.5,12.13-3.93,3.57-7.77,7.25-11.73,10.78-5.68,5.08-11.49,10-17.16,15.12-7.31,6.58-14.56,13.25-21.78,19.94a37.52,37.52,0,0,0-3.58,4.16c-2.06,2.6-4.89,3.25-7.11,1.56-1.68-1.28-2-5.44-.19-7.35,3.79-4,7.78-7.89,11.72-11.79,3.13-3.09,6.22-6.24,9.49-9.19,5-4.54,10.3-8.85,15.34-13.39,3.58-3.23,6.83-6.81,10.44-10,6.22-5.48,12.65-10.72,18.9-16.16,4.63-4,9.09-8.27,13.68-12.35,2.79-2.48,5.62-4.92,8.58-7.19.74-.56,2-.38,3.1-.53Z"/><path class="cls-2" d="M293.16,160.53c.29-1.21.26-1,.38-1.66a25.06,25.06,0,0,0,.39-2.5h0a21.12,21.12,0,0,0,.16-2.2c-.24-2.4.37-5.66-1-13.12-.92-4.89-1.88-9.93-5-15.94A48.19,48.19,0,0,0,281,115a37.54,37.54,0,0,0-10.06-8.3,37.07,37.07,0,0,0-5.56-2.47c-11.73-4.08-23.51-.76-24.74-.4-3.53,1-11.41,3.36-17.45,10.11-4.36,4.88-9.48,9.18-13.11,14.62-.37.55-1.54,2.34-2.72,2.16-.93-.14-1.49-1.47-2-3a44.32,44.32,0,0,1-1.92-8.24C202.12,112,199.87,104,195,97.74a31.54,31.54,0,0,0-16.47-11.16c-6-1.59-10.88-.76-15.56,0a56,56,0,0,0-19.7,7.69,60,60,0,0,0-16.45,13.4,56,56,0,0,0-8.13,12.72,57,57,0,0,0-4,12.63,68.33,68.33,0,0,0-1.36,10.86,96,96,0,0,0,.66,17.85A66.37,66.37,0,0,0,116,173.51a64.36,64.36,0,0,0,3.08,8.35c4,9.46,6,14.19,7.43,17.25,8.28,17.89,10.23,19.75,12.68,21,3.51,1.84,9.18,3.09,11.35.75a6.8,6.8,0,0,0,1.33-3.32,8,8,0,0,0-.94-4.46c-1.84-3.83-2.75-5.74-4.51-8-.8-1-2.87-5-7-12.9-3.07-5.87-9.87-18.85-11.68-35.95-1.34-12.63.85-19.8,1.42-21.53a81.93,81.93,0,0,1,3.47-8.41,46.67,46.67,0,0,1,5.44-9.29c3.17-4,6.41-6.1,10.46-8.75a55.84,55.84,0,0,1,13-6.41c6.42-2.09,9.84-1.77,10.71-1.67a15.66,15.66,0,0,1,7.22,2.44,16.88,16.88,0,0,1,4.67,5,32.15,32.15,0,0,1,4.43,9.09A46.1,46.1,0,0,1,190.47,129c.52,9.62,1.83,19.19,2.29,28.82.1,2.11.27,5.95,3,8.51.3.29,2.81,2.57,5.92,2.13,1.89-.26,3.49-1.46,6-4.91a57.84,57.84,0,0,0,6.49-12.24,106.13,106.13,0,0,1,6.47-12,74.66,74.66,0,0,1,17.62-18.49,23,23,0,0,1,9.63-4.34,20.88,20.88,0,0,1,4.14-.3,26,26,0,0,1,12,3.17,26.59,26.59,0,0,1,9,8.51,35.38,35.38,0,0,1,6,15,34.53,34.53,0,0,1-.33,14.52,40.85,40.85,0,0,1-2.89,7.59,82.43,82.43,0,0,1-7.6,13.62s-9.17,13.15-22.38,21.33c-.77.48-2.66,1.62-4.46,2.7-5.8,3.44-8.7,5.16-11.17,6.4-4.3,2.14-10.28,4.27-22.24,8.51A6.91,6.91,0,0,0,204.4,220a6.65,6.65,0,0,0-.55,6.09c1.51,3.62,5.93,4.24,6.71,4.34,2.79.33,4.37-1.08,8.46-2.46,6.15-2.08,4.61-1.2,11.73-4a131.44,131.44,0,0,0,13.87-6.5,104.18,104.18,0,0,0,11.9-7.2c7.24-5.17,11.71-10.15,17.34-16.42s8.53-9.48,11.08-14a99,99,0,0,0,7.12-16l.17-.51C293.12,160.65,292.24,163.28,293.16,160.53Z"/><path class="cls-1" d="M362.66,199.63c-1.63-2.86-2.87-3.44-3.81-3.51-1.9-.13-3.35,1.8-3.41,1.88a5.94,5.94,0,0,0-.91,4c.11,4.46,1.55,5.35,1.86,9.23.14,1.7.42,5.1-1.65,7.2a6.29,6.29,0,0,1-3.23,1.63c-9.66,2.21-21.25,1.28-23.57,1.09-3.29-.29-4.28-.45-4.94-.57a47.53,47.53,0,0,1-11-3.75,23.15,23.15,0,0,1-3.19-1.58,15.11,15.11,0,0,1-5.58-6.86,17.06,17.06,0,0,1-1-4,64,64,0,0,1-1.07-12.26c.12-6.59,1.22-11.92,3.26-21.81,0,0,1.88-9.13,4.46-18.08.52-1.8,1-3.52,1-3.52,1.5-4.89,1.92-5.7,3.35-10.16,1.6-5,1.74-6.06,3.41-10.87.12-.36,2-6.61,2.55-8.05,4.15-11,2.7-8.16,5.67-15.58.67-1.69,1.55-7,.06-7.73a3.52,3.52,0,0,0-5.2,1.26c-4,6.85-5,9.71-5,9.71-.27.85-4.27,11.32-4.89,13-4.75,13.19-6.53,18.7-8,22.77-.32.88-.59,2.38-1.37,4.41-.49,1.29-1.2,3.55-3.29,11l-.08.28c0,.13-.07.26-.1.39-.56,2.83-.07.42-.65,3.29,0,0,0,.08,0,.13l-.84,4.63a2,2,0,0,1,0,.23c0,.15-.05.3-.07.44-.28,1.73-1.11,6.8-2.48,15.26a72.29,72.29,0,0,0,.47,25.88c1.49,6.74,2.16,8.09,4.92,10.75a21.5,21.5,0,0,0,5.4,3.34c2.58,1.1,1.89.84,4.12,1.81a53,53,0,0,0,9.33,3.19,109.93,109.93,0,0,0,14,1.82c6.53.54,9.8.8,13.38.49,5.44-.47,10.1-.45,13.66-2.66,7-4.32,7.59-12.16,7.77-13.08C367.4,207.54,364,202,362.66,199.63Z"/></svg>