<svg id="Capa_1" data-name="Capa 1" xmlns="http://www.w3.org/2000/svg" viewBox="0 0 595.28 352.72"><defs><style>.cls-1{fill:#fff;}.cls-2{fill:#fe5640;stroke:#fff;stroke-miterlimit:10;stroke-width:3px;}.cls-3{fill:#333;}.cls-4{fill:#fcfcfc;}</style></defs><rect class="cls-1" width="595.28" height="352.72" rx="27.58"/><path class="cls-2" d="M303.74,192.52c0-.59-.05-1.18-.07-1.77-.23-.69.11-1.43-.21-2.11,0-.78-.06-1.56-.08-2.33-.26-.88.12-1.82-.23-2.69l-.06-2.34c-.25-.7.09-1.45-.22-2.14,0-.57-.06-1.14-.1-1.71-.2-.48.1-1-.21-1.49a57.9,57.9,0,0,0-3.32-14,54.44,54.44,0,0,0-9.11-15.75c-3.77-4.59-8.66-7.08-14.3-8.39a21.33,21.33,0,0,0-2.27-.29c-.46-.32-1,0-1.49-.22a21,21,0,0,0-3.88,0c-.49.18-1-.08-1.52.2a49.23,49.23,0,0,0-13.8,3.3,90.33,90.33,0,0,0-17.23,8.54c-5.39,3.39-10.71,6.87-15.19,11.48a57.19,57.19,0,0,0-10,14.59C207.12,182,203.91,188.78,202,196a43.33,43.33,0,0,0-1.63,11c-.34.67,0,1.4-.21,2.08l-.11,3.79a15.35,15.35,0,0,0,0,4.54l.09,3.84c.19.7-.1,1.45.19,2.14,0,.56.05,1.13.08,1.7.25.58-.11,1.23.23,1.79l.07,1.17c.23.48-.09,1,.23,1.49a82,82,0,0,0,2.21,13.4c3.46,15.81,9.89,30.45,17.56,44.62,2.93,5.41,5.47,11.05,8.82,16.21a89.53,89.53,0,0,1,6.75,11.65,26.51,26.51,0,0,1,2,5,9.65,9.65,0,0,1,0,2.63c-1.24,4.27-3.53,5.68-8.26,4.71-3.47-.72-6.93-1.64-9.85-3.84-2.23-1.68-3.51-4.12-4.92-6.43A185.18,185.18,0,0,1,206.73,301c-3.37-7-6.51-14.08-9.48-21.25-2.48-6-5.21-11.89-7.57-17.92A78.5,78.5,0,0,1,185,245.58c-.65-4.06-1.16-8.12-1.55-12.21-.2-.47.1-1-.22-1.48l-.06-1.18c-.25-.57.1-1.23-.23-1.8l-.09-1.76c-.21-.67.13-1.4-.21-2.07l-.06-2.36c-.29-1.67.14-3.38-.23-5.05,0-1,0-2.1,0-3.15.33-1.58,0-3.2.19-4.79l.09-2.65c.33-.67,0-1.41.21-2.09l.1-2c.27-.49,0-1,.21-1.55l.07-1.17c.32-.46,0-1,.23-1.49a92.57,92.57,0,0,1,4.83-20.44,81.23,81.23,0,0,1,13.07-23.28,99.54,99.54,0,0,1,7.07-8,90.07,90.07,0,0,1,18.08-13.7A115.91,115.91,0,0,1,243,124.91a78.76,78.76,0,0,1,15.44-4.28c2-.34,3.94-.65,5.91-1,.47-.23,1,.09,1.49-.23l1.48-.09c.78-.21,1.61.13,2.38-.2h3.44c.69.3,1.44,0,2.14.2a45,45,0,0,1,24.87,11.41c7.43,6.62,12,14.94,15.07,24.23a121.32,121.32,0,0,1,4.21,18.37,46.67,46.67,0,0,0,3.89,13.12,4.44,4.44,0,0,0,3.18,2.8,3.41,3.41,0,0,0,2.14,0c2.42-.72,3.71-2.7,5-4.59a100.73,100.73,0,0,1,7-8.57c3.17-3.57,6.76-6.72,9.94-10.26,1.52-1.7,3-3.44,4.64-5a42.6,42.6,0,0,1,9.1-7.06,69.84,69.84,0,0,1,20.91-7.61c1.71-.36,3.46-.52,5.19-.77.47-.18,1,.11,1.47-.21l1.78-.08c1.29-.23,2.62.13,3.91-.2H399c1.28.34,2.6,0,3.88.2l1.76.09c.47.31,1,0,1.5.23a58.68,58.68,0,0,1,16.89,5,56.53,56.53,0,0,1,18.3,14.51,71.51,71.51,0,0,1,16.91,35.49c.7,3.69,1.26,7.4,1.88,11.09.17.5-.09,1,.19,1.52l.08,2.33c.19,2.25,0,4.5.09,6.76a3.88,3.88,0,0,0,.12,1.59v1c-.26.49,0,1-.19,1.54-.68,6.27-2.87,12.11-5.13,17.92a126.46,126.46,0,0,1-11,22.42,99,99,0,0,1-9.82,12.28C429,285,423.57,291.22,417.75,297a125.36,125.36,0,0,1-26.92,20.26c-5.74,3.25-11.55,6.36-17.52,9.14a161.46,161.46,0,0,1-25.38,9.6,118.23,118.23,0,0,0-11.65,4.36c-3.64,1.43-9.88-.61-11.81-3.8a7.76,7.76,0,0,1-1-2.85,9.27,9.27,0,0,1,0-2.63c.53-4,3.39-5.37,6.76-6.53,9.65-3.34,19.3-6.72,28.74-10.63a106.2,106.2,0,0,0,14.13-7.42c6.18-3.72,12.49-7.23,18.48-11.24,3.32-2.22,6.44-4.7,9.54-7.23A133.81,133.81,0,0,0,414.6,275.1a107.83,107.83,0,0,0,13-16.92,166.7,166.7,0,0,0,8-15,74.49,74.49,0,0,0,4.55-10.79,36.54,36.54,0,0,0,1.85-9.15c0-.57.28-1,.29-1.7.35-.77,0-1.6.23-2.38,0-1.78,0-3.57,0-5.35-.22-.69.11-1.43-.21-2.11a62.44,62.44,0,0,0-1.46-9.54,71.08,71.08,0,0,0-2.91-9.27,56.31,56.31,0,0,0-6.77-12.28,45.41,45.41,0,0,0-5.85-7,41.28,41.28,0,0,0-19.73-10.46,42.71,42.71,0,0,0-5.85-.84,32.45,32.45,0,0,0-6.61,0A29.28,29.28,0,0,0,382.4,165c-7,3.12-12.73,8-18.27,13.11a110.62,110.62,0,0,0-18.3,21.62,143.65,143.65,0,0,0-11.42,21.9c-2.93,7-6.5,13.6-11.58,19.27a8.14,8.14,0,0,1-4.31,2.91,10.52,10.52,0,0,1-2.63,0c-3.75-.37-7.2-4.13-8.24-7.83a24,24,0,0,1-.73-5c-.24-1,.14-2-.22-3l-.06-2.36c-.27-.78.12-1.62-.23-2.39,0-.68-.05-1.37-.08-2-.2-.6.08-1.25-.2-1.84l-.11-2c-.2-.58.12-1.22-.21-1.78l-.06-1.47c-.24-.58.1-1.23-.23-1.8l-.06-1.46c-.25-.58.09-1.23-.23-1.8l-.08-1.46c-.2-.49.06-1.05-.21-1.54l-.09-1.72c-.19-.49.08-1-.21-1.51l-.1-1.75c-.17-.49.09-1-.2-1.51l-.09-1.74c-.17-.5.06-1-.19-1.54L304,194.6C303.71,193.93,304.09,193.18,303.74,192.52Z"/><path class="cls-3" d="M99.46,215.57l4.38.08c1.09.33,2.22,0,3.31.21l2.93.08c.88.35,1.82,0,2.7.23l2,.07c.58.3,1.23,0,1.82.21l1.69.1c.5.26,1.07,0,1.57.21a110,110,0,0,1,22.82,5.1,60.37,60.37,0,0,1,20.5,12c8.52,7.6,13.45,17.1,15.56,28.2.29,1.48.46,3,.69,4.47.25.58-.11,1.23.23,1.79l.08,2.06c.13,3.75.11,7.49,0,11.23l-.09,2.94c-.34.77,0,1.61-.22,2.39-.3,4.13-2.21,7.7-3.86,11.37a57.54,57.54,0,0,1-11.8,17.28,62.52,62.52,0,0,1-13.44,9.84,80.25,80.25,0,0,1-22,8.45c-3.5.81-7.09,1.13-10.65,1.61-1.83.24-3.67.44-5.51.66-.48.22-1-.08-1.51.23l-1.45.08c-.49.19-1-.07-1.53.2l-1.72.1c-.61.19-1.27-.08-1.87.19l-2.28.1c-.89.23-1.83-.12-2.72.21l-5,.09a17.35,17.35,0,0,1-3.53,0l-4.68-.09c-.79-.32-1.63,0-2.42-.21l-2-.1c-.5-.25-1.06,0-1.57-.19a127.66,127.66,0,0,1-16.75-2.49c-6.51-1.37-12.88-3.19-18.44-7.1a40.86,40.86,0,0,1-11.47-12.35c-3.61-5.94-5.64-12.46-7.17-19.18a13.14,13.14,0,0,1-.13-1.89c-.19-.49.08-1-.2-1.53v-4.91c.28-.48,0-1,.21-1.53a12.41,12.41,0,0,1,2.14-6.45,3.35,3.35,0,0,1,3.23-1.5,3.4,3.4,0,0,1,3,2.21,23.25,23.25,0,0,1,.94,5.14c.25.68-.12,1.42.23,2.09l.06,1.76c.27.89-.11,1.83.22,2.72-.58,7,2.31,12.83,6.14,18.28a38.55,38.55,0,0,0,12.3,11.81c3.83,2.19,8.08,3.25,12.34,4.17a39.73,39.73,0,0,0,8.82,1.23c.5.26,1.06,0,1.56.21l1.73.08c.68.31,1.43,0,2.12.21l2.36.07c1.07.38,2.19,0,3.27.23l4.09.08a62.22,62.22,0,0,0,9.26,0l3.54-.07c.8-.24,1.66.1,2.45-.21l2-.1c.51-.18,1.07.06,1.57-.19l1.39-.09c.47-.23,1,.09,1.49-.23a71.57,71.57,0,0,0,13.8-2.47,75.42,75.42,0,0,0,17.51-6.71,46.27,46.27,0,0,0,9.55-7,70.5,70.5,0,0,0,12.5-16.29,40.63,40.63,0,0,0,5.26-13.7,3.87,3.87,0,0,0,0-.59c.32-.68,0-1.43.22-2.13V276.9c-.25-.89.12-1.83-.21-2.72a59.56,59.56,0,0,0-1.89-10.51,58.07,58.07,0,0,0-3.42-9.6,40.82,40.82,0,0,0-6.06-9.42c-4.51-5.38-10.21-9.17-16.43-12.19A52.15,52.15,0,0,0,130,228.33c-2.57-.5-5.12-1.13-7.7-1.59a68.18,68.18,0,0,0-9.21-1.36c-.67,0-1.29-.46-2-.3-.58-.3-1.24,0-1.83-.22l-2-.07c-1.28-.34-2.61,0-3.9-.22q-7.11-.21-14.23,0c-2.16.14-4.32,0-6.48.07a3.94,3.94,0,0,0-1.6.12l-13.5,0c-2-.38-4,.06-5.93-.23l-3.17-.09c-.7-.29-1.45,0-2.16-.19l-1.73-.1c-.48-.28-1,0-1.53-.21a47.55,47.55,0,0,1-17.5-5.11c-5.86-3.08-10-7.53-11.61-14.15a57.61,57.61,0,0,1-1.44-7.45c-.23-.49.06-1.05-.23-1.53L22.13,194a78.67,78.67,0,0,1,0-8c.42-7,2.42-13.69,4.37-20.4a41.44,41.44,0,0,1,6.55-13.35,90.45,90.45,0,0,1,11.78-12.95,74.14,74.14,0,0,1,24-14.53,62.15,62.15,0,0,1,14-3c1.41-.18,2.8-.42,4.2-.64.48-.23,1,.08,1.51-.23l1.45-.09c.51-.16,1.07.06,1.57-.19l2.28-.11c1.08-.22,2.21.15,3.28-.2l4.9,0c1,.31,2,0,3,.2l1.75.08c.47.3,1,0,1.51.22a95.41,95.41,0,0,1,37.23,14.34,30.86,30.86,0,0,1,11.94,14.33,35.24,35.24,0,0,0,2.38,4.17,8.68,8.68,0,0,1,1.13,3.58c.21,2.12-.81,3.61-3,4.54a4.13,4.13,0,0,1-1.75,0c-2.8-.58-3.66-3-4.93-5.08a54.2,54.2,0,0,0-8.12-10.88,37.31,37.31,0,0,0-16.71-9.39c-3.38-.89-6.65-2.26-10-3.2-3.88-1.08-7.67-2.54-11.73-2.91a33.75,33.75,0,0,0-6.89,0l-2.91.1c-.61.18-1.26-.08-1.86.19A77.63,77.63,0,0,0,72.06,135c-9.87,3.43-18.69,8.48-25.72,16.37a62,62,0,0,0-9.61,15.31,63.34,63.34,0,0,0-5,16.76,17.47,17.47,0,0,0-.05,2.51c-.31.9,0,1.85-.21,2.75v2.09c.25.91-.1,1.85.21,2.75.14,5.64,1.52,10.77,6,14.64a16.38,16.38,0,0,0,6.41,3.6,52.08,52.08,0,0,0,12.46,2.11c.47.3,1,0,1.51.22l1.39.09c.5.26,1.07,0,1.57.21l1.17.06c.46.32,1,0,1.49.23a45.29,45.29,0,0,0,13.64.89c5.09-.19,10.19-.06,15.28-.07C94.85,215.49,97.16,215.37,99.46,215.57Z"/><path class="cls-3" d="M451.77,149.4c-1.54-.26-2.5-1.43-3.54-2.38-2.07-1.89-3.89-4.06-6-5.93-3.55-3.18-6.77-6.71-10.27-9.92-2.75-2.53-5.24-5.31-8-7.77-3.26-2.88-6.37-5.92-9.51-8.92s-6.48-5.93-9.63-9c-2.71-2.64-5.52-5.21-8.34-7.76s-5.46-5-8.14-7.58c-3.66-3.49-7.24-7.07-10.91-10.54-3.93-3.72-7.59-7.71-11.59-11.34-3.35-3-6.39-6.38-9.72-9.42-2.46-2.26-4.75-4.69-7.2-6.94-4.08-3.74-8-7.63-12-11.42s-7.9-7.31-11.69-11.13a41.9,41.9,0,0,0-3.91-3.23,3.63,3.63,0,0,0-2.12-.85,4.89,4.89,0,0,0-2.49,0c-2.34,0-3.94,1.57-5.57,2.9-6.83,5.58-13.66,11.15-20.39,16.85-4.08,3.46-8,7.12-11.95,10.72-6.91,6.29-13.83,12.54-20.65,18.92-4.89,4.56-9.92,8.95-14.92,13.37-5.33,4.71-10.74,9.33-16.07,14-3.31,2.93-6.56,5.92-9.82,8.91q-10.56,9.65-21.1,19.32a84.85,84.85,0,0,0-11,11.67c-1.55,2.08-4.66,3.25-6.81,2.13a3.67,3.67,0,0,1-1.88-3.2,7.35,7.35,0,0,1,1.94-6.21c5.81-6.31,11.94-12.3,18.12-18.23,3.86-3.71,7.48-7.67,11.46-11.24,3.74-3.36,7.47-6.72,11.33-9.95,2.62-2.2,5.21-4.47,7.74-6.79,2.93-2.68,6.09-5.1,9-7.8s5.57-5.74,8.49-8.45c3.6-3.33,7.08-6.78,10.94-9.82,3.11-2.45,6-5.23,9-7.8,3.56-3,7.21-5.93,10.76-9,2.47-2.09,4.82-4.33,7.28-6.43,2.69-2.31,5.22-4.79,7.95-7,1.35-1.11,2.58-2.37,3.86-3.57,3.64-3.42,7.42-6.69,11.16-10,2.93-2.58,6-5,8.94-7.52.75-.64,1.54-.46,2.3-.68s1.44.11,2.12-.21a44.57,44.57,0,0,1,7.62,6.68c3.14,3.62,6.65,6.83,10.12,10.11,7.83,7.38,16.08,14.33,23.57,22.08,4.31,4.46,8.64,8.91,13,13.28,6.66,6.61,13.59,12.93,20.7,19.06,4.58,4,8.87,8.23,13.19,12.47,8.12,8,16.23,15.93,24.43,23.82,7.27,7,14.58,14,21.63,21.18a13.92,13.92,0,0,1,3.91,5.91c.62,2.25.12,3.41-2,4.23l-1,.37A8.73,8.73,0,0,1,451.77,149.4Z"/><path class="cls-3" d="M525.16,331.3l7.72,0c1.29-.27,2.62.12,3.9-.22l2.32-.08c.6-.22,1.26.07,1.86-.21,5.12-.26,10.24-.83,15-2.73,3.49-1.39,5.5-4.35,6.21-8,.1-.54.54-1.06.29-1.67a18.08,18.08,0,0,0,0-5.09,32.34,32.34,0,0,0-1.67-7.84,18.11,18.11,0,0,1-1.09-4.86,37,37,0,0,1,0-4.71,4.64,4.64,0,0,1,2.9-3.84,2.25,2.25,0,0,1,2.65.53c2.18,2,3.35,4.66,4.67,7.19a27,27,0,0,1,3.44,14.14c-.38,6.07-1.57,12-5.26,17a19.71,19.71,0,0,1-13.75,8.44c-1.45.2-2.9.44-4.34.65-.58.24-1.23-.11-1.79.23l-1.77.08c-.68.23-1.42-.13-2.08.22l-1.77.07c-.6.21-1.26-.08-1.86.2h-8.39c-.8-.3-1.65,0-2.46-.2l-2-.08c-.68-.34-1.42,0-2.11-.23l-1.72-.07c-.58-.3-1.23,0-1.83-.21l-1.74-.08c-.58-.32-1.23,0-1.81-.22l-1.47-.07c-.56-.34-1.21,0-1.79-.24-3.06-.31-6.15-.46-9.17-1a82.64,82.64,0,0,1-15.53-3.87c-4.31-1.63-8.51-3.5-12.7-5.38-5-2.26-9.47-5.45-11.57-10.87A57.37,57.37,0,0,1,464,309a78.72,78.72,0,0,1-1.63-10.79c-.21-.58.12-1.22-.22-1.79,0-.68-.05-1.37-.08-2.06-.21-1.1.12-2.24-.19-3.34,0-2.12,0-4.24,0-6.35.35-1.19-.06-2.42.22-3.61l.07-2c.32-.57,0-1.22.21-1.81l.08-1.47c.32-.46,0-1,.23-1.49.43-4.62,1.47-9.15,2.1-13.74s1.43-9.35,2.2-14a166,166,0,0,1,3.61-17.44c1.81-6.43,3.87-12.79,5.87-19.16,1.83-5.83,3.92-11.57,5.87-17.35,1.73-5.12,3.48-10.24,5.32-15.32s3.75-9.9,5.62-14.84c1.47-3.91,2.93-7.81,4.38-11.73a70,70,0,0,1,4.9-9.89c.84-1.51,1.71-3,2.56-4.5a2.81,2.81,0,0,1,2.67-1.46c1.52,0,2.12.53,2.27,2,.06.69,0,1.38,0,2.07-.3.47,0,1-.22,1.51-2.26,8.38-5.55,16.42-8.45,24.58-3.11,8.77-5.84,17.65-8.55,26.54-2.95,9.69-6.51,19.19-9.24,28.95a443.36,443.36,0,0,0-11,50.16c-1.68,10.66-1.07,21.29.65,31.93,1.15,7.1,4.13,13,9.72,17.49,2.53,2.05,5.55,3.17,8.46,4.48a71,71,0,0,0,16.91,5.53,15.56,15.56,0,0,0,2.05.11c.46.32,1,0,1.5.23l1.39.09c.5.25,1.06,0,1.56.19l1.75.09c.68.33,1.42,0,2.1.21l2.61.09C522.55,331.43,523.87,331.08,525.16,331.3Z"/><path class="cls-4" d="M238.38,323.07v-2.63A3.38,3.38,0,0,1,238.38,323.07Z"/></svg>