<svg id="Capa_1" data-name="Capa 1" xmlns="http://www.w3.org/2000/svg" viewBox="0 0 652.85 406.52"><defs><style>.cls-1{fill:#fff;}.cls-2{fill:#fe5640;stroke:#fff;stroke-miterlimit:10;stroke-width:3px;}.cls-3{fill:#333;}.cls-4{fill:#fcfcfc;}</style></defs><path class="cls-1" d="M0,0H553.35a99.51,99.51,0,0,1,99.51,99.51v307a0,0,0,0,1,0,0H99.51A99.51,99.51,0,0,1,0,307V0A0,0,0,0,1,0,0Z"/><path class="cls-2" d="M329.52,212.34c0-.59,0-1.18-.07-1.77-.24-.69.1-1.43-.22-2.11,0-.78-.05-1.56-.08-2.33-.25-.88.13-1.81-.22-2.69l-.07-2.34c-.24-.7.09-1.45-.21-2.14,0-.57-.07-1.14-.1-1.71-.2-.48.1-1-.22-1.49a57.44,57.44,0,0,0-3.32-14,54.18,54.18,0,0,0-9.1-15.75c-3.77-4.59-8.67-7.08-14.31-8.39a21.33,21.33,0,0,0-2.27-.29c-.46-.32-1,0-1.48-.22a21.06,21.06,0,0,0-3.89,0c-.49.18-1-.08-1.51.2a49.3,49.3,0,0,0-13.81,3.3,90.33,90.33,0,0,0-17.23,8.54c-5.38,3.39-10.7,6.87-15.18,11.48a57.14,57.14,0,0,0-10,14.59c-3.34,6.67-6.55,13.41-8.42,20.67a43.78,43.78,0,0,0-1.63,11c-.34.67,0,1.4-.21,2.08l-.1,3.79a15.35,15.35,0,0,0,0,4.54c0,1.28.05,2.56.08,3.84.2.7-.1,1.45.19,2.14,0,.56.06,1.13.08,1.7.25.58-.1,1.23.24,1.79l.06,1.17c.23.48-.09,1,.23,1.49a83.08,83.08,0,0,0,2.22,13.4c3.46,15.81,9.89,30.45,17.56,44.62,2.92,5.41,5.47,11.05,8.82,16.21a89.53,89.53,0,0,1,6.75,11.65,27.15,27.15,0,0,1,2,5,9.65,9.65,0,0,1,0,2.63c-1.23,4.27-3.52,5.68-8.25,4.71-3.48-.72-6.93-1.64-9.85-3.84-2.24-1.68-3.51-4.12-4.93-6.43-3.25-5.31-5.91-10.94-8.61-16.52-3.38-7-6.51-14.09-9.48-21.26-2.49-6-5.21-11.89-7.58-17.92a79.1,79.1,0,0,1-4.65-16.23c-.65-4.06-1.17-8.12-1.56-12.21-.2-.47.1-1-.21-1.48l-.07-1.17c-.24-.58.1-1.24-.22-1.81l-.1-1.76c-.2-.67.13-1.4-.21-2.07l-.06-2.36c-.29-1.67.15-3.38-.23-5,0-1.05,0-2.1,0-3.15.32-1.58,0-3.2.19-4.79l.09-2.65c.33-.67,0-1.4.2-2.09l.11-2c.27-.49,0-1.05.21-1.55l.07-1.17c.32-.46,0-1,.23-1.49a92.55,92.55,0,0,1,4.82-20.44,81.47,81.47,0,0,1,13.07-23.28,97.75,97.75,0,0,1,7.08-8,90.29,90.29,0,0,1,18.07-13.7,116,116,0,0,1,16.5-8.44,78.66,78.66,0,0,1,15.43-4.28c2-.34,3.94-.65,5.92-1,.47-.23,1,.09,1.49-.23l1.48-.09c.78-.21,1.61.13,2.38-.2h3.44c.69.3,1.43,0,2.13.2A45,45,0,0,1,326,150.58c7.42,6.62,12,14.94,15.06,24.23a121.35,121.35,0,0,1,4.22,18.37,46.67,46.67,0,0,0,3.89,13.12,4.42,4.42,0,0,0,3.18,2.8,3.4,3.4,0,0,0,2.14,0c2.42-.72,3.7-2.69,5.05-4.59a102.56,102.56,0,0,1,7-8.57c3.18-3.57,6.77-6.72,9.94-10.26,1.53-1.7,3.06-3.44,4.65-5a42.11,42.11,0,0,1,9.1-7.06A69.74,69.74,0,0,1,411.09,166c1.7-.36,3.45-.52,5.18-.77.48-.18,1,.11,1.48-.21l1.77-.08c1.3-.23,2.62.13,3.91-.2h1.35c1.28.34,2.6,0,3.89.2l1.75.09c.47.31,1,0,1.51.23a58.77,58.77,0,0,1,16.89,5,56.63,56.63,0,0,1,18.3,14.51A71.74,71.74,0,0,1,484,220.23c.7,3.69,1.25,7.4,1.87,11.09.17.5-.08,1,.2,1.52l.07,2.33c.2,2.25,0,4.5.1,6.76a3.71,3.71,0,0,0,.12,1.59v1c-.26.49,0,1-.19,1.54-.69,6.27-2.88,12.11-5.13,17.92a127.15,127.15,0,0,1-11,22.42,99,99,0,0,1-9.82,12.28c-5.47,6.13-10.87,12.33-16.68,18.13A125.42,125.42,0,0,1,416.6,337.1c-5.73,3.25-11.54,6.36-17.51,9.14a162.22,162.22,0,0,1-25.38,9.6,118.23,118.23,0,0,0-11.65,4.36c-3.65,1.43-9.89-.61-11.82-3.8a8.15,8.15,0,0,1-1-2.85,9.65,9.65,0,0,1,0-2.63c.53-4,3.4-5.37,6.76-6.53,9.66-3.34,19.3-6.72,28.75-10.63a106.82,106.82,0,0,0,14.13-7.42c6.18-3.72,12.48-7.23,18.48-11.24,3.32-2.22,6.44-4.7,9.54-7.23a133.81,133.81,0,0,0,13.45-12.95,108.44,108.44,0,0,0,13-16.92c3-4.84,5.52-9.88,8-15a74.44,74.44,0,0,0,4.54-10.79,36.12,36.12,0,0,0,1.86-9.15c0-.57.27-1,.29-1.7.35-.76,0-1.6.23-2.38,0-1.78,0-3.57,0-5.35-.21-.69.11-1.43-.2-2.11a62.46,62.46,0,0,0-1.47-9.54,72.59,72.59,0,0,0-2.9-9.27,56.74,56.74,0,0,0-6.77-12.28,46.56,46.56,0,0,0-5.85-7A41.32,41.32,0,0,0,431.35,183a42.79,42.79,0,0,0-5.84-.84,32.55,32.55,0,0,0-6.62,0,29.23,29.23,0,0,0-10.71,2.67c-7,3.13-12.73,8-18.28,13.11a110.57,110.57,0,0,0-18.29,21.62,144.61,144.61,0,0,0-11.43,21.9c-2.92,7-6.49,13.6-11.58,19.27a8.06,8.06,0,0,1-4.31,2.91,10,10,0,0,1-2.62,0c-3.76-.37-7.2-4.13-8.25-7.83a25.46,25.46,0,0,1-.73-5c-.23-1,.15-2-.21-3,0-.78,0-1.57-.07-2.36-.26-.78.12-1.62-.22-2.39l-.09-2.05c-.2-.6.09-1.25-.2-1.84l-.1-2c-.2-.58.12-1.22-.21-1.78l-.06-1.47c-.25-.58.09-1.23-.23-1.8l-.07-1.46c-.24-.58.1-1.23-.23-1.8l-.07-1.46c-.2-.49.06-1.05-.21-1.54,0-.57-.07-1.14-.1-1.72-.19-.49.08-1-.2-1.51l-.1-1.75c-.18-.49.08-1-.2-1.51l-.1-1.74c-.16-.5.07-1-.19-1.54l-.08-1.71C329.49,213.75,329.87,213,329.52,212.34Z"/><path class="cls-3" d="M125.23,235.39l4.39.08c1.08.33,2.21,0,3.31.21l2.93.08c.87.35,1.81,0,2.69.23l2,.07c.58.3,1.24,0,1.83.21l1.69.1c.5.26,1.06,0,1.57.21a110.13,110.13,0,0,1,22.82,5.1,60.46,60.46,0,0,1,20.5,12c8.51,7.6,13.45,17.1,15.56,28.2.28,1.48.46,3,.69,4.47.24.58-.11,1.23.23,1.79l.08,2.06c.12,3.75.11,7.49,0,11.23,0,1-.07,2-.1,2.94-.34.77,0,1.61-.21,2.39-.3,4.13-2.21,7.7-3.87,11.37a57.33,57.33,0,0,1-11.79,17.28,62.52,62.52,0,0,1-13.44,9.84,80.17,80.17,0,0,1-22,8.45c-3.51.81-7.09,1.13-10.65,1.61-1.84.24-3.67.44-5.51.67-.48.21-1-.09-1.51.22l-1.45.08c-.5.19-1.05-.07-1.53.2l-1.73.1c-.61.19-1.26-.08-1.86.19l-2.28.1c-.9.23-1.83-.12-2.72.21l-5,.09a17.35,17.35,0,0,1-3.53,0l-4.69-.09c-.78-.32-1.62,0-2.42-.21l-2-.1c-.5-.25-1.06,0-1.57-.19A127.41,127.41,0,0,1,89,354.11c-6.51-1.37-12.89-3.19-18.45-7.1a41,41,0,0,1-11.46-12.35c-3.62-5.94-5.65-12.46-7.17-19.18a11.85,11.85,0,0,1-.13-1.89c-.19-.49.07-1-.21-1.53v-4.91c.29-.48,0-1,.22-1.53a12.32,12.32,0,0,1,2.14-6.45,3.33,3.33,0,0,1,3.22-1.5,3.38,3.38,0,0,1,3,2.22,23.64,23.64,0,0,1,1,5.14c.24.67-.12,1.41.23,2.08l.06,1.76c.26.89-.12,1.83.22,2.72-.59,7,2.31,12.83,6.13,18.28A38.65,38.65,0,0,0,80,341.68c3.84,2.19,8.08,3.25,12.35,4.17a39.64,39.64,0,0,0,8.81,1.23c.5.26,1.07,0,1.57.21l1.72.08c.69.32,1.44,0,2.13.21l2.36.07c1.07.38,2.19,0,3.26.23l4.1.08a62.09,62.09,0,0,0,9.25,0l3.55-.07c.8-.24,1.65.1,2.45-.21l2-.1c.5-.18,1.06.06,1.56-.19l1.4-.09c.47-.23,1,.09,1.49-.23a71.84,71.84,0,0,0,13.8-2.47,75.59,75.59,0,0,0,17.51-6.71,46.81,46.81,0,0,0,9.55-7,70.46,70.46,0,0,0,12.49-16.29,40.43,40.43,0,0,0,5.26-13.7,2.91,2.91,0,0,0,0-.59c.33-.68,0-1.43.23-2.12v-1.5c-.25-.89.12-1.83-.22-2.72a63.22,63.22,0,0,0-5.3-20.11,41.16,41.16,0,0,0-6.06-9.42c-4.51-5.38-10.21-9.17-16.44-12.19a52.2,52.2,0,0,0-13.05-4.13c-2.58-.5-5.12-1.13-7.7-1.59a68.32,68.32,0,0,0-9.22-1.36c-.66,0-1.28-.46-2-.3-.58-.3-1.23,0-1.82-.22l-2-.07c-1.29-.34-2.61,0-3.9-.22q-7.12-.21-14.24,0c-2.15.14-4.31,0-6.47.07a3.93,3.93,0,0,0-1.6.12l-13.51,0c-2-.38-4,.06-5.93-.23l-3.17-.09c-.7-.29-1.45,0-2.15-.19L80.3,244c-.48-.28-1,0-1.53-.21a47.72,47.72,0,0,1-17.51-5.1c-5.86-3.09-10-7.54-11.6-14.16a57.64,57.64,0,0,1-1.45-7.45c-.22-.49.07-1.05-.22-1.53l-.08-1.73a75.86,75.86,0,0,1,0-8c.42-7,2.42-13.69,4.37-20.4a41.65,41.65,0,0,1,6.55-13.35,91.59,91.59,0,0,1,11.78-12.95,74.18,74.18,0,0,1,24-14.53,61.91,61.91,0,0,1,14-3c1.4-.18,2.79-.42,4.19-.64.48-.23,1,.08,1.51-.23l1.46-.09c.51-.16,1.06.06,1.56-.19l2.29-.1c1.08-.23,2.2.14,3.28-.21l4.9,0c1,.31,2,0,3,.2l1.75.08c.47.3,1,0,1.51.22A95.35,95.35,0,0,1,171.34,155a30.94,30.94,0,0,1,11.95,14.33,35.24,35.24,0,0,0,2.38,4.17,8.52,8.52,0,0,1,1.12,3.58c.22,2.12-.8,3.61-2.94,4.54a4.18,4.18,0,0,1-1.76,0c-2.79-.58-3.66-3-4.92-5.08A54.25,54.25,0,0,0,169,165.69a37.22,37.22,0,0,0-16.7-9.39c-3.39-.89-6.65-2.26-10-3.2-3.87-1.08-7.67-2.54-11.72-2.91a34.49,34.49,0,0,0-6.89,0l-2.91.1c-.61.18-1.27-.08-1.86.19a77.55,77.55,0,0,0-21.09,4.34c-9.87,3.43-18.69,8.48-25.72,16.37a61.46,61.46,0,0,0-9.61,15.31,63,63,0,0,0-5,16.76,17.47,17.47,0,0,0,0,2.51c-.31.9,0,1.85-.21,2.75v2.09c.24.91-.1,1.85.21,2.75.13,5.64,1.51,10.77,6,14.64a16.67,16.67,0,0,0,6.41,3.61,52.66,52.66,0,0,0,12.46,2.1c.47.3,1,0,1.51.22l1.4.09c.49.26,1.06,0,1.57.21l1.17.06c.46.32,1,0,1.49.23a45.25,45.25,0,0,0,13.63.89c5.1-.19,10.19-.06,15.29-.07C120.63,235.31,122.93,235.19,125.23,235.39Z"/><path class="cls-3" d="M477.54,169.22c-1.53-.26-2.5-1.43-3.53-2.38-2.07-1.89-3.89-4.06-6-5.93-3.56-3.18-6.77-6.71-10.28-9.92-2.75-2.53-5.24-5.31-8-7.77-3.26-2.88-6.36-5.92-9.51-8.92s-6.48-5.93-9.62-9c-2.71-2.64-5.53-5.21-8.34-7.76s-5.47-5-8.15-7.58c-3.65-3.49-7.23-7.07-10.9-10.54-3.93-3.72-7.6-7.71-11.59-11.34-3.35-3-6.4-6.38-9.72-9.42-2.47-2.26-4.75-4.69-7.21-6.94-4.07-3.73-8-7.63-12-11.42S354.76,53,351,49.17a40.51,40.51,0,0,0-3.9-3.23,3.63,3.63,0,0,0-2.12-.85,4.93,4.93,0,0,0-2.5,0c-2.34,0-3.93,1.57-5.57,2.9-6.83,5.58-13.66,11.15-20.39,16.85-4.08,3.46-8,7.12-12,10.72-6.9,6.29-13.83,12.54-20.65,18.92C279,99,274,103.42,269,107.84c-5.33,4.71-10.73,9.33-16.06,14-3.32,2.93-6.57,5.92-9.83,8.91L222,150.11a83.65,83.65,0,0,0-11,11.67c-1.55,2.08-4.66,3.25-6.82,2.13a3.67,3.67,0,0,1-1.88-3.2,7.39,7.39,0,0,1,1.94-6.21c5.81-6.31,11.95-12.3,18.12-18.23,3.87-3.71,7.48-7.67,11.46-11.24,3.74-3.36,7.48-6.72,11.33-10q3.94-3.3,7.75-6.79c2.93-2.68,6.09-5.1,9-7.8s5.56-5.74,8.49-8.45c3.59-3.33,7.07-6.78,10.94-9.82,3.1-2.45,5.95-5.23,9-7.8,3.56-3,7.21-5.93,10.77-9,2.47-2.09,4.82-4.33,7.28-6.43,2.69-2.31,5.21-4.79,8-7,1.34-1.11,2.58-2.37,3.85-3.57,3.65-3.42,7.42-6.69,11.17-10,2.92-2.58,6-5,8.93-7.52.76-.64,1.54-.46,2.31-.68s1.43.11,2.12-.21a45.34,45.34,0,0,1,7.62,6.68c3.14,3.62,6.65,6.83,10.12,10.11,7.83,7.38,16.07,14.33,23.57,22.08,4.31,4.46,8.63,8.91,13,13.28,6.66,6.61,13.58,12.93,20.69,19.06,4.58,4,8.88,8.23,13.2,12.47,8.12,8,16.23,15.93,24.43,23.82,7.27,7,14.57,14,21.63,21.18a14,14,0,0,1,3.91,5.91c.62,2.25.12,3.41-2,4.23l-.95.37A8.41,8.41,0,0,1,477.54,169.22Z"/><path class="cls-3" d="M550.94,351.12l7.72,0c1.29-.27,2.61.12,3.9-.22l2.31-.08c.61-.22,1.27.07,1.87-.21,5.12-.26,10.23-.83,15-2.73,3.5-1.39,5.5-4.34,6.21-8,.11-.54.55-1.06.3-1.67a18.46,18.46,0,0,0,0-5.09,31.87,31.87,0,0,0-1.67-7.84,17.72,17.72,0,0,1-1.08-4.86,33.65,33.65,0,0,1,0-4.71,4.65,4.65,0,0,1,2.89-3.84,2.26,2.26,0,0,1,2.66.53c2.18,2,3.35,4.66,4.66,7.19a26.86,26.86,0,0,1,3.44,14.14c-.38,6.07-1.56,12-5.26,17a19.69,19.69,0,0,1-13.75,8.44c-1.45.2-2.89.44-4.34.65-.58.24-1.23-.11-1.79.23l-1.76.08c-.68.23-1.42-.13-2.09.22l-1.76.07c-.61.21-1.27-.08-1.86.2h-8.4c-.8-.3-1.65,0-2.45-.2l-2.05-.08c-.67-.34-1.42,0-2.1-.23l-1.72-.07c-.59-.3-1.24,0-1.83-.21l-1.75-.08c-.57-.32-1.22,0-1.8-.22l-1.47-.07c-.56-.34-1.22,0-1.79-.24-3.06-.31-6.15-.46-9.18-1a83,83,0,0,1-15.53-3.87c-4.3-1.63-8.51-3.5-12.69-5.38-5-2.26-9.48-5.45-11.58-10.87a58.41,58.41,0,0,1-2.47-9.32A78.7,78.7,0,0,1,488.12,318c-.22-.58.11-1.22-.22-1.79l-.09-2.06c-.21-1.1.13-2.24-.19-3.34v-6.35c.34-1.19-.06-2.42.22-3.61l.07-2c.31-.57,0-1.22.21-1.81l.08-1.47c.32-.46,0-1,.22-1.49.44-4.62,1.47-9.15,2.11-13.74s1.42-9.35,2.2-14a165.34,165.34,0,0,1,3.61-17.43c1.81-6.44,3.86-12.79,5.86-19.17,1.83-5.83,3.93-11.57,5.88-17.35,1.73-5.12,3.47-10.24,5.32-15.32s3.74-9.9,5.61-14.84c1.47-3.91,2.94-7.81,4.38-11.73a72.17,72.17,0,0,1,4.9-9.89c.84-1.51,1.72-3,2.57-4.5a2.8,2.8,0,0,1,2.67-1.46c1.51,0,2.12.53,2.26,2,.07.69,0,1.38.05,2.07-.31.47,0,1-.23,1.51-2.26,8.38-5.55,16.42-8.44,24.58-3.12,8.77-5.85,17.65-8.55,26.54-3,9.69-6.51,19.19-9.24,28.95a443.36,443.36,0,0,0-11,50.16c-1.68,10.66-1.08,21.29.65,31.93,1.15,7.1,4.13,13,9.72,17.49,2.53,2.05,5.54,3.17,8.46,4.48a70.82,70.82,0,0,0,16.91,5.53,15.46,15.46,0,0,0,2,.11c.46.32,1,0,1.49.23l1.39.09c.5.25,1.06,0,1.57.19l1.75.09c.67.33,1.41,0,2.1.21l2.61.09C548.33,351.25,549.65,350.9,550.94,351.12Z"/><path class="cls-4" d="M264.15,342.89v-2.63A3.34,3.34,0,0,1,264.15,342.89Z"/></svg>